<?xml version="1.0" encoding="utf-8"?>
<!-- Generator: Adobe Illustrator 16.0.0, SVG Export Plug-In . SVG Version: 6.00 Build 0)  -->
<!DOCTYPE svg PUBLIC "-//W3C//DTD SVG 1.0//EN" "http://www.w3.org/TR/2001/REC-SVG-20010904/DTD/svg10.dtd">
<svg version="1.0" id="Layer_1" xmlns="http://www.w3.org/2000/svg" xmlns:xlink="http://www.w3.org/1999/xlink" x="0px" y="0px"
	 width="150px" height="150px" viewBox="0 0 150 150" style="enable-background:new 0 0 150 150;" xml:space="preserve">
<style type="text/css">
<![CDATA[
	.st0{fill:#E6B522;}
	.st1{fill:#EDF0F1;}
	.st2{fill:#F6E198;}
]]>
</style>
<g>
	<circle class="st0" cx="75" cy="75" r="73.5"/>
	<path class="st2" d="M85.2,60.2c-2.9,1.5-6.1,2.5-9.3,2.5c-1.2,0-2.3-0.1-3.4-0.3c0,1.3,0.1,2.9,0,4.5v0.3c0,1.5-0.3,2.9-0.9,4.2
		c-0.3,0.8-0.8,1.5-1.3,2.1c0,0,0,0,0,0c-0.1,0.1-0.1,0.1-0.2,0.2c-1.1,1.2-2.5,2.2-4.2,2.7l-2.2,23.9L57.6,114
		c3,0.9,9,1.8,18.1,1.8c9.1,0,15.2-0.9,18.1-1.8l-6.1-14.2L85.2,60.2z"/>
	<path class="st1" d="M117.1,59.8c-0.9-2.1-2.8-7.8-15-8.1h-0.1c-2.5,3-6.1,5.1-10.2,5.8l0.4,43l1.6,13.5c-3,0.9-9,1.8-18.1,1.8
		c-9.1,0-15.1-0.9-18.1-1.8l2-13.6V76.6c-0.5-0.1-1-0.3-1.5-0.5c-3.1-1.2-5.8-3.8-6.4-7v33.5L49,118.4c0,7.3,53.4,7.3,53.4,0
		l-1.9-16.1c1.7-0.7,3.2-1.4,4.8-2.1c7.9-3.3,12.5-6.9,13.5-13.3C119.5,82.4,121.5,69.9,117.1,59.8z M110.4,86.2
		c-0.5,3.2-1.1,3.3-10.6,7.3V60.2c6.1,0,8.5,0.8,9.6,3.2C112,69.7,111.6,78.3,110.4,86.2z"/>
	<path class="st1" d="M62.2,71.3c2.3,0,4.5-1.4,4.5-4.2V53.8c2.1,2.1,5.6,3.3,9.1,3.3c3.8,0,8.3-2,10.7-5.1c0.8,0.2,1.6,0.3,2.4,0.3
		c5.7,0,10.8-4.1,11.1-10.1c0.2-6.6-5.3-10.5-11.1-10.5c-1.5,0-3,0.2-4.4,0.8c-1.8-3.6-5.6-6.1-10.1-6.1c-4.8,0-8.8,2.8-10.4,6.7
		c-1.6-0.8-3.4-1.3-5.4-1.3c-16.8,0-16.5,24.3-0.9,24.3v11.3C57.7,69.9,60,71.3,62.2,71.3z"/>
</g>
</svg>
