<?xml version="1.0" encoding="utf-8"?>
<!-- Generator: Adobe Illustrator 16.0.0, SVG Export Plug-In . SVG Version: 6.00 Build 0)  -->
<!DOCTYPE svg PUBLIC "-//W3C//DTD SVG 1.0//EN" "http://www.w3.org/TR/2001/REC-SVG-20010904/DTD/svg10.dtd">
<svg version="1.0" id="Layer_1" xmlns="http://www.w3.org/2000/svg" xmlns:xlink="http://www.w3.org/1999/xlink" x="0px" y="0px"
	 width="150px" height="150px" viewBox="0 0 150 150" style="enable-background:new 0 0 150 150;" xml:space="preserve">
<style type="text/css">
<![CDATA[
	.st0{fill:#EDF0F1;}
	.st1{fill:#906728;}
	.st2{fill:#D3C199;}
]]>
</style>
<g>
	<circle class="st1" cx="75" cy="75" r="73.9"/>
	<path class="st2" d="M101.2,75.3c-3-2.2-7.9-3.6-14.7-4.4l3.2,3.8c0.7,0.8,0.6,2.1-0.2,2.8l-8.6,7.3c-0.8,0.7-2.1,0.6-2.8-0.2
		L70.9,76c-0.7-0.8-0.6-2.1,0.2-2.8l3.3-2.8c-11.7,0.1-21.2,1.7-25.6,5l0.8,33.1c0.1,1.6,1.1,3,2.6,3.4c2,0.6,4.5,1.2,5.7,1.4
		c4.7,0.9,9.2,1.5,17.1,1.5c7.9,0,12.4-0.6,17.1-1.5c3-0.6,5-1.2,6.3-1.7c0,0,0,0,0,0c1.2-0.6,1.9-1.8,2-3.2L101.2,75.3z M72.1,89.6
		l-4.5,10.3c-0.4,1-1.6,1.5-2.6,1l-10.3-4.5c-1-0.4-1.5-1.6-1-2.6l4.5-10.3c0.4-1,1.6-1.5,2.6-1L71.1,87
		C72.1,87.4,72.5,88.6,72.1,89.6z M94.8,102.8l-9.4,6.2c-0.9,0.6-2.1,0.3-2.7-0.6l-6.2-9.4c-0.6-0.9-0.3-2.1,0.6-2.7l9.4-6.2
		c0.9-0.6,2.1-0.3,2.7,0.6l6.2,9.4C96,100.9,95.7,102.2,94.8,102.8z"/>
	<path class="st0" d="M75,29.5c-22.4,0-40.6,6.5-40.6,14.6l2.9,68.8c0.3,7,7.7,10.6,18.3,12.7c5.8,1.1,11.1,1.7,19.5,1.7
		c8.4,0,13.7-0.6,19.5-1.7c10.6-2.1,18-5.7,18.3-12.7l2.9-68.8C115.6,36.1,97.4,29.5,75,29.5z M75,35.2c19.1,0,31.6,5.1,34.5,7.8
		c0.4,0.3,0.6,0.8,0.5,1.3c0,0.5-0.3,0.9-0.6,1.2c-3.4,2.6-15.6,7.5-34.4,7.5c-19.1,0-31.6-5.1-34.5-7.8c-0.4-0.3-0.6-0.8-0.5-1.3
		c0-0.5,0.3-0.9,0.6-1.2C43.9,40.1,56.2,35.2,75,35.2z M93.4,120c-5.1,1-10,1.6-18.4,1.6c-8.4,0-13.3-0.6-18.4-1.6
		c-6.2-1.2-13.5-3.4-13.7-7.3l-2.5-60.9c15.9,9.3,53.3,9.3,69.2,0l-2.5,60.9C106.9,116.6,99.5,118.8,93.4,120z"/>
</g>
</svg>
