<?xml version="1.0" encoding="utf-8"?>
<!-- Generator: Adobe Illustrator 16.0.0, SVG Export Plug-In . SVG Version: 6.00 Build 0)  -->
<!DOCTYPE svg PUBLIC "-//W3C//DTD SVG 1.0//EN" "http://www.w3.org/TR/2001/REC-SVG-20010904/DTD/svg10.dtd">
<svg version="1.0" id="Layer_1" xmlns="http://www.w3.org/2000/svg" xmlns:xlink="http://www.w3.org/1999/xlink" x="0px" y="0px"
	 width="150px" height="150px" viewBox="0 0 150 150" style="enable-background:new 0 0 150 150;" xml:space="preserve">
<style type="text/css">
<![CDATA[
	.st0{fill:#872D37;}
	.st1{fill:#EDF0F1;}
	.st2{fill:#CFABAF;}
]]>
</style>
<g>
	<circle class="st0" cx="75" cy="75" r="72.8"/>
</g>
<path class="st1" d="M81.9,87.3c10.2-3,17.6-10.2,17.6-23.6V28.3c0-1.7-12.3-3.4-24.6-3.4c-12.3,0-24.6,1.7-24.6,3.4v35.5
	c0,13.4,7.4,20.6,17.6,23.6c1.3,0.4,2.2,1.5,2.2,2.8l2.1,35.1c-8.9,0.2-15.7,1.7-15.7,3.4c0,1.9,8.2,3.4,18.4,3.4
	c10.1,0,18.4-1.5,18.4-3.4c0-1.7-6.8-3.2-15.7-3.4l2.1-35.1C79.8,88.8,80.7,87.7,81.9,87.3z M69.8,81.2c-8.9-2.6-13.2-8.3-13.2-17.4
	V38.9c0,0,0,0,0,0c0,0,0,0.3,0,0.9v-0.9v-6.3c0,0,0,0,0,0v0c0,0,0,0,0,0c0.1-2.8,36.9-2.8,36.9,0l0,0v0v20.9v10.2
	c0,9.1-4.3,14.8-13.2,17.4C78.1,81.8,71.9,81.8,69.8,81.2z"/>
<path class="st2" d="M93.5,63.8v-7.3c0,1,0,0,0,0c0-8.9-22-21.4-18.2-13.7c5.9,12.1-14.7,16.8-18.7-0.9v22c0,9.1,4.3,14.8,13.2,17.4
	c2.2,0.6,8.3,0.6,10.4,0C89.1,78.6,93.5,72.9,93.5,63.8z"/>
</svg>
